<svg xmlns="http://www.w3.org/2000/svg" viewBox="0 0 21.66 18"><defs><style>.cls-1{opacity:0.6;}</style></defs><title>Asset 1</title><g id="Layer_2" data-name="Layer 2"><g id="Layer_1-2" data-name="Layer 1"><g class="cls-1"><path d="M10.83,18h-9a1.79,1.79,0,1,1-.06-3.57h18A1.79,1.79,0,1,1,19.87,18h-9Z"/><path d="M10.84,0h9A1.73,1.73,0,0,1,21.5,1.05a1.77,1.77,0,0,1-1.63,2.51h-18A1.78,1.78,0,0,1,1.63,0h9.21Z"/><path d="M10.83,10.78h-9a1.74,1.74,0,0,1-1.67-1A1.77,1.77,0,0,1,1.79,7.22H19.86A1.78,1.78,0,0,1,20,10.77H10.83Z"/></g></g></g></svg>