<svg xmlns="http://www.w3.org/2000/svg" viewBox="0 0 330.76 42.96">
  <g>
    <circle cx="4.3" cy="4.3" r="4.3"/>
    <circle cx="4.3" cy="38.66" r="4.3"/>
    <circle cx="36.51" cy="4.3" r="4.3"/>
    <circle cx="36.51" cy="38.66" r="4.3"/>
    <path d="M73,4.3A4.3,4.3,0,1,1,68.73,0,4.3,4.3,0,0,1,73,4.3Z"/>
    <path d="M73,38.66a4.3,4.3,0,1,1-4.3-4.29A4.31,4.31,0,0,1,73,38.66Z"/>
    <circle cx="100.95" cy="4.3" r="4.3"/>
    <circle cx="100.95" cy="38.66" r="4.3"/>
    <circle cx="133.16" cy="4.3" r="4.3"/>
    <circle cx="133.16" cy="38.66" r="4.3"/>
    <circle cx="165.38" cy="4.3" r="4.3"/>
    <circle cx="165.38" cy="38.66" r="4.3"/>
    <circle cx="197.6" cy="4.3" r="4.3"/>
    <circle cx="197.6" cy="38.66" r="4.3"/>
    <path d="M234.11,4.3A4.3,4.3,0,1,1,229.82,0,4.29,4.29,0,0,1,234.11,4.3Z"/>
    <path d="M234.11,38.66a4.3,4.3,0,1,1-4.29-4.29A4.3,4.3,0,0,1,234.11,38.66Z"/>
    <circle cx="262.03" cy="4.3" r="4.3"/>
    <circle cx="262.03" cy="38.66" r="4.3"/>
    <path d="M298.55,4.3a4.3,4.3,0,1,1-4.3-4.3A4.3,4.3,0,0,1,298.55,4.3Z"/>
    <path d="M298.55,38.66a4.3,4.3,0,1,1-4.3-4.29A4.31,4.31,0,0,1,298.55,38.66Z"/>
    <circle cx="326.47" cy="4.3" r="4.3"/>
    <circle cx="326.47" cy="38.66" r="4.3"/>
  </g>
</svg>