<svg xmlns="http://www.w3.org/2000/svg" viewBox="0 0 330.76 42.96"><defs><style>.cls-1{opacity:0.35;}.cls-2{fill:#676d73;}</style></defs><title>Asset 10</title><g id="Layer_2" data-name="Layer 2"><g id="Layer_1-2" data-name="Layer 1"><g class="cls-1"><circle class="cls-2" cx="4.3" cy="4.3" r="4.3"/><circle class="cls-2" cx="4.3" cy="38.66" r="4.3"/><circle class="cls-2" cx="36.51" cy="4.3" r="4.3"/><circle class="cls-2" cx="36.51" cy="38.66" r="4.3"/><path class="cls-2" d="M73,4.3A4.3,4.3,0,1,1,68.73,0,4.3,4.3,0,0,1,73,4.3Z"/><path class="cls-2" d="M73,38.66a4.3,4.3,0,1,1-4.3-4.29A4.31,4.31,0,0,1,73,38.66Z"/><circle class="cls-2" cx="100.95" cy="4.3" r="4.3"/><circle class="cls-2" cx="100.95" cy="38.66" r="4.3"/><circle class="cls-2" cx="133.16" cy="4.3" r="4.3"/><circle class="cls-2" cx="133.16" cy="38.66" r="4.3"/><circle class="cls-2" cx="165.38" cy="4.3" r="4.3"/><circle class="cls-2" cx="165.38" cy="38.66" r="4.3"/><circle class="cls-2" cx="197.6" cy="4.3" r="4.3"/><circle class="cls-2" cx="197.6" cy="38.66" r="4.3"/><path class="cls-2" d="M234.11,4.3A4.3,4.3,0,1,1,229.82,0,4.29,4.29,0,0,1,234.11,4.3Z"/><path class="cls-2" d="M234.11,38.66a4.3,4.3,0,1,1-4.29-4.29A4.3,4.3,0,0,1,234.11,38.66Z"/><circle class="cls-2" cx="262.03" cy="4.3" r="4.3"/><circle class="cls-2" cx="262.03" cy="38.66" r="4.3"/><path class="cls-2" d="M298.55,4.3a4.3,4.3,0,1,1-4.3-4.3A4.3,4.3,0,0,1,298.55,4.3Z"/><path class="cls-2" d="M298.55,38.66a4.3,4.3,0,1,1-4.3-4.29A4.31,4.31,0,0,1,298.55,38.66Z"/><circle class="cls-2" cx="326.47" cy="4.3" r="4.3"/><circle class="cls-2" cx="326.47" cy="38.66" r="4.3"/></g></g></g></svg>