<svg xmlns="http://www.w3.org/2000/svg" viewBox="0 0 134.42 378.05">
<g>
  <circle cx="4.2" cy="4.2" r="4.2"/>
  <circle cx="4.2" cy="37.81" r="4.2"/>
  <circle cx="4.2" cy="71.41" r="4.2"/>
  <circle cx="4.2" cy="105.01" r="4.2"/>
  <circle cx="4.2" cy="138.62" r="4.2"/>
  <circle cx="4.2" cy="172.22" r="4.2"/>
  <circle cx="4.2" cy="205.83" r="4.2"/>
  <circle cx="4.2" cy="239.43" r="4.2"/>
  <circle cx="4.2" cy="273.04" r="4.2"/>
  <circle cx="4.2" cy="306.64" r="4.2"/>
  <circle cx="4.2" cy="340.25" r="4.2"/>
  <circle cx="4.2" cy="373.85" r="4.2"/>
  <circle cx="35.7" cy="4.2" r="4.2"/>
  <circle cx="35.7" cy="37.81" r="4.2"/>
  <circle cx="35.7" cy="71.41" r="4.2"/>
  <circle cx="35.7" cy="105.01" r="4.2"/>
  <circle cx="35.7" cy="138.62" r="4.2"/>
  <circle cx="35.7" cy="172.22" r="4.2"/>
  <circle cx="35.7" cy="205.83" r="4.2"/>
  <circle cx="35.7" cy="239.43" r="4.2"/>
  <circle cx="35.7" cy="273.04" r="4.2"/>
  <circle cx="35.7" cy="306.64" r="4.2"/>
  <circle cx="35.7" cy="340.25" r="4.2"/>
  <circle cx="35.7" cy="373.85" r="4.2"/>
  <path d="M71.41,4.2A4.2,4.2,0,1,1,67.21,0,4.2,4.2,0,0,1,71.41,4.2Z"/>
  <path d="M71.41,37.81a4.2,4.2,0,1,1-4.2-4.21A4.2,4.2,0,0,1,71.41,37.81Z"/>
  <path d="M71.41,71.41a4.2,4.2,0,1,1-4.2-4.2A4.2,4.2,0,0,1,71.41,71.41Z"/>
  <path d="M71.41,105a4.2,4.2,0,1,1-4.2-4.2A4.21,4.21,0,0,1,71.41,105Z"/>
  <path d="M71.41,138.62a4.2,4.2,0,1,1-4.2-4.2A4.2,4.2,0,0,1,71.41,138.62Z"/>
  <path d="M71.41,172.22a4.2,4.2,0,1,1-4.2-4.2A4.2,4.2,0,0,1,71.41,172.22Z"/>
  <path d="M71.41,205.83a4.2,4.2,0,1,1-4.2-4.2A4.2,4.2,0,0,1,71.41,205.83Z"/>
  <path d="M71.41,239.43a4.2,4.2,0,1,1-4.2-4.2A4.2,4.2,0,0,1,71.41,239.43Z"/>
  <path d="M71.41,273a4.2,4.2,0,1,1-4.2-4.2A4.2,4.2,0,0,1,71.41,273Z"/>
  <path d="M71.41,306.64a4.2,4.2,0,1,1-4.2-4.2A4.2,4.2,0,0,1,71.41,306.64Z"/>
  <path d="M71.41,340.25a4.2,4.2,0,1,1-4.2-4.2A4.2,4.2,0,0,1,71.41,340.25Z"/>
  <path d="M71.41,373.85a4.2,4.2,0,1,1-4.2-4.2A4.2,4.2,0,0,1,71.41,373.85Z"/>
  <circle cx="98.71" cy="4.2" r="4.2"/>
  <circle cx="98.71" cy="37.81" r="4.2"/>
  <circle cx="98.71" cy="71.41" r="4.2"/>
  <circle cx="98.71" cy="105.01" r="4.2"/>
  <circle cx="98.71" cy="138.62" r="4.2"/>
  <circle cx="98.71" cy="172.22" r="4.2"/>
  <circle cx="98.71" cy="205.83" r="4.2"/>
  <circle cx="98.71" cy="239.43" r="4.2"/>
  <circle cx="98.71" cy="273.04" r="4.2"/>
  <circle cx="98.71" cy="306.64" r="4.2"/>
  <circle cx="98.71" cy="340.25" r="4.2"/>
  <circle cx="98.71" cy="373.85" r="4.2"/>
  <circle cx="130.22" cy="4.2" r="4.2"/>
  <circle cx="130.22" cy="37.81" r="4.2"/>
  <circle cx="130.22" cy="71.41" r="4.2"/>
  <circle cx="130.22" cy="105.01" r="4.2"/>
  <circle cx="130.22" cy="138.62" r="4.2"/>
  <circle cx="130.22" cy="172.22" r="4.2"/>
  <circle cx="130.22" cy="205.83" r="4.2"/>
  <circle cx="130.22" cy="239.43" r="4.2"/>
  <circle cx="130.22" cy="273.04" r="4.2"/>
  <circle cx="130.22" cy="306.64" r="4.2"/>
  <circle cx="130.22" cy="340.25" r="4.2"/>
  <circle cx="130.22" cy="373.85" r="4.2"/>
</g>
</svg>